<mxfile host="app.diagrams.net" modified="2022-04-21T07:43:16.309Z" agent="5.0 (Windows NT 10.0; Win64; x64) AppleWebKit/537.36 (KHTML, like Gecko) Chrome/100.0.4896.127 Safari/537.36" etag="Ums1wnOesC0p2O_3yEQm" version="17.4.6" type="github">
  <diagram id="nTxu4Gw4ea5ZxEpp6bXC" name="Page-1">
    <mxGraphModel dx="716" dy="377" grid="1" gridSize="10" guides="1" tooltips="1" connect="1" arrows="1" fold="1" page="1" pageScale="1" pageWidth="1200" pageHeight="1920" math="0" shadow="0">
      <root>
        <mxCell id="0" />
        <mxCell id="1" parent="0" />
        <mxCell id="rz4Hii9pveIafok2pYg7-4" style="edgeStyle=orthogonalEdgeStyle;rounded=0;orthogonalLoop=1;jettySize=auto;html=1;exitX=1;exitY=0.5;exitDx=0;exitDy=0;" edge="1" parent="1" source="rz4Hii9pveIafok2pYg7-1" target="rz4Hii9pveIafok2pYg7-3">
          <mxGeometry relative="1" as="geometry" />
        </mxCell>
        <mxCell id="rz4Hii9pveIafok2pYg7-1" value="levelitem.ts-&amp;gt;callback()&amp;nbsp;" style="rounded=0;whiteSpace=wrap;html=1;" vertex="1" parent="1">
          <mxGeometry x="30" y="470" width="120" height="60" as="geometry" />
        </mxCell>
        <mxCell id="rz4Hii9pveIafok2pYg7-5" style="edgeStyle=orthogonalEdgeStyle;rounded=0;orthogonalLoop=1;jettySize=auto;html=1;exitX=0.5;exitY=1;exitDx=0;exitDy=0;entryX=0.5;entryY=0;entryDx=0;entryDy=0;" edge="1" parent="1" source="rz4Hii9pveIafok2pYg7-2" target="rz4Hii9pveIafok2pYg7-1">
          <mxGeometry relative="1" as="geometry" />
        </mxCell>
        <mxCell id="rz4Hii9pveIafok2pYg7-2" value="Node:levelitem" style="ellipse;whiteSpace=wrap;html=1;" vertex="1" parent="1">
          <mxGeometry x="30" y="370" width="120" height="80" as="geometry" />
        </mxCell>
        <mxCell id="rz4Hii9pveIafok2pYg7-7" style="edgeStyle=orthogonalEdgeStyle;rounded=0;orthogonalLoop=1;jettySize=auto;html=1;exitX=1;exitY=0.5;exitDx=0;exitDy=0;entryX=0;entryY=0.5;entryDx=0;entryDy=0;" edge="1" parent="1" source="rz4Hii9pveIafok2pYg7-3" target="rz4Hii9pveIafok2pYg7-6">
          <mxGeometry relative="1" as="geometry" />
        </mxCell>
        <mxCell id="rz4Hii9pveIafok2pYg7-3" value="levelitem.&lt;br&gt;openmain(_value)" style="rounded=0;whiteSpace=wrap;html=1;" vertex="1" parent="1">
          <mxGeometry x="190" y="470" width="120" height="90" as="geometry" />
        </mxCell>
        <mxCell id="rz4Hii9pveIafok2pYg7-9" style="edgeStyle=orthogonalEdgeStyle;rounded=0;orthogonalLoop=1;jettySize=auto;html=1;exitX=1;exitY=0.5;exitDx=0;exitDy=0;entryX=0;entryY=0.5;entryDx=0;entryDy=0;" edge="1" parent="1" source="rz4Hii9pveIafok2pYg7-6" target="rz4Hii9pveIafok2pYg7-8">
          <mxGeometry relative="1" as="geometry" />
        </mxCell>
        <mxCell id="rz4Hii9pveIafok2pYg7-6" value="_value=levelitem.ts.init(value)" style="rounded=0;whiteSpace=wrap;html=1;" vertex="1" parent="1">
          <mxGeometry x="350" y="470" width="200" height="60" as="geometry" />
        </mxCell>
        <mxCell id="rz4Hii9pveIafok2pYg7-8" value="levelCtrl.ts.initLevel调用init(value)" style="rounded=0;whiteSpace=wrap;html=1;" vertex="1" parent="1">
          <mxGeometry x="610" y="470" width="120" height="60" as="geometry" />
        </mxCell>
      </root>
    </mxGraphModel>
  </diagram>
</mxfile>
